#!OML:ASF F:\VICON\USERDATA\INSTALL\rory3\rory3.ASF
:FULLY-SPECIFIED
:DEGREES
256
root 5.59762 17.7908 17.3883 -0.706835 0.580234 3.26108
lowerback 9.22276 -0.974401 -5.33384
upperback 0.467281 -1.80495 1.0109
thorax -4.49188 -0.774586 4.29379
lowerneck -17.2297 -2.30661 -2.1391
upperneck 15.1896 -2.89521 1.55705
head 7.56444 -1.35572 0.53053
rclavicle -2.03754e-015 -2.78299e-015
rhumerus -35.2329 -25.2323 -74.3868
rradius 23.6386
rwrist 6.36927
rhand -17.9853 22.7203
rfingers 7.12502
rthumb 8.28449 -7.09727
lclavicle -2.03754e-015 -2.78299e-015
lhumerus -23.1843 -3.07482 79.8353
lradius 35.2352
lwrist 6.8154
lhand -26.3863 27.3598
lfingers 7.12502
lthumb 0.172668 57.3395
rfemur -29.8889 4.40553 17.4838
rtibia 18.6361
rfoot -7.36979 -19.611
rtoes -1.60278
lfemur 13.8536 -0.805922 -28.5326
ltibia 12.0607
lfoot -15.2605 -2.10369
ltoes -7.11376
257
root 5.58542 17.7845 17.5823 -0.702034 0.666386 3.22756
lowerback 9.24014 -1.01607 -5.33671
upperback 0.390862 -1.86171 1.0484
thorax -4.57416 -0.797888 4.34404
lowerneck -16.8952 -2.36369 -2.28347
upperneck 14.9727 -2.96426 1.6831
head 7.44105 -1.38753 0.591577
rclavicle 1.5381e-014 1.51076e-014
rhumerus -35.8724 -25.367 -73.9936
rradius 23.6384
rwrist 6.56393
rhand -17.9715 23.5986
rfingers 7.12502
rthumb 8.29786 -6.21846
lclavicle 1.5381e-014 1.51076e-014
lhumerus -23.1595 -3.21367 79.7945
lradius 35.2779
lwrist 6.59268
lhand -27.6259 25.6553
lfingers 7.12502
lthumb -1.02463 55.6326
rfemur -29.3292 5.27914 17.1565
rtibia 16.7351
rfoot -7.19682 -18.8569
rtoes -5.53633
lfemur 14.3549 -0.987646 -28.427
ltibia 12.0504
lfoot -15.0204 -2.80323
ltoes -5.24052
258
root 5.57253 17.7672 17.7623 -0.572133 0.672077 2.91333
lowerback 9.32992 -1.04486 -5.05788
upperback 0.341538 -1.87121 1.15497
thorax -4.6802 -0.803 4.30371
lowerneck -17.3314 -2.37009 -2.15894
upperneck 15.2548 -2.98358 1.59872
head 7.6062 -1.39414 0.535982
rclavicle -1.34428e-014 -1.11319e-014
rhumerus -36.1378 -25.8028 -73.6699
rradius 23.4201
rwrist 6.85105
rhand -17.7847 24.0588
rfingers 7.12502
rthumb 8.47815 -5.75106
lclavicle -1.34428e-014 -1.11319e-014
lhumerus -22.9254 -3.52338 79.7728
lradius 35.3013
lwrist 7.04426
lhand -27.8619 25.0491
lfingers 7.12502
lthumb -1.25257 55.0252
rfemur -29.0663 6.23531 17.1735
rtibia 15.3075
rfoot -7.47916 -17.9819
rtoes -6.11724
lfemur 15.0748 -1.05969 -28.0191
ltibia 12.2101
lfoot -15.4013 -2.54952
ltoes -8.71551
259
root 5.55875 17.7465 17.9485 -0.485549 0.806746 2.84742
lowerback 9.31014 -1.10527 -5.0681
upperback 0.408814 -1.94582 1.24442
thorax -4.58675 -0.843275 4.41066
lowerneck -17.7188 -2.35522 -2.14086
upperneck 15.3522 -2.95102 1.54683
head 7.7034 -1.37992 0.515509
rclavicle 5.06901e-015 9.14409e-015
rhumerus -36.0057 -26.124 -73.4813
rradius 23.1226
rwrist 7.05514
rhand -17.8384 23.694
rfingers 7.12502
rthumb 8.4263 -6.11786
lclavicle 5.06901e-015 9.14409e-015
lhumerus -22.548 -3.60467 79.823
lradius 35.1601
lwrist 7.37191
lhand -27.1238 26.3055
lfingers 7.12502
lthumb -0.539617 56.2846
rfemur -28.7675 6.36277 17.2451
rtibia 14.3651
rfoot -8.46596 -16.615
rtoes -4.77008
lfemur 15.3459 -1.28849 -27.8665
ltibia 12.7918
lfoot -15.4922 -2.699
ltoes -11.1872
260
root 5.54829 17.7278 18.1411 -0.600381 0.829183 2.86163
lowerback 9.52026 -1.12536 -5.12569
upperback 0.352751 -1.98833 1.2934
thorax -4.75518 -0.855772 4.50918
lowerneck -17.5526 -2.35884 -2.23882
upperneck 15.3919 -2.94198 1.58338
head 7.6899 -1.37886 0.546054
rclavicle 1.25234e-014 -3.97569e-016
rhumerus -36.3156 -26.151 -73.1943
rradius 23.0096
rwrist 6.94088
rhand -17.9377 24.1211
rfingers 7.12502
rthumb 8.33046 -5.69463
lclavicle 1.25234e-014 -3.97569e-016
lhumerus -22.6154 -3.55116 79.8622
lradius 35.1394
lwrist 7.30271
lhand -26.9679 25.8074
lfingers 7.12502
lthumb -0.389059 55.7867
rfemur -28.3696 5.99628 17.5266
rtibia 14.0365
rfoot -10.6066 -14.9089
rtoes -1.13184
lfemur 15.3639 -1.51351 -27.8398
ltibia 13.6408
lfoot -15.054 -3.68028
ltoes -8.25342
261
root 5.5286 17.7049 18.3274 -0.559051 0.753 2.71959
lowerback 9.61994 -1.11773 -5.09484
upperback 0.23979 -1.9775 1.38738
thorax -4.92896 -0.841886 4.59594
lowerneck -17.3466 -2.32176 -2.2969
upperneck 15.4099 -2.86727 1.50846
head 7.65857 -1.35549 0.541459
rclavicle -5.96354e-015 -5.56597e-015
rhumerus -36.6304 -26.4409 -72.8758
rradius 22.8811
rwrist 6.98418
rhand -17.8049 24.2005
rfingers 7.12502
rthumb 8.45864 -5.61006
lclavicle -5.96354e-015 -5.56597e-015
lhumerus -22.6948 -3.53831 79.9151
lradius 35.1747
lwrist 7.27707
lhand -27.7224 23.8937
lfingers 7.12502
lthumb -1.11784 53.8705
rfemur -28.4286 5.99445 17.929
rtibia 14.4085
rfoot -10.4054 -13.7516
rtoes -1.47157
lfemur 15.7228 -1.40801 -27.552
ltibia 14.379
lfoot -15.3031 -4.00598
ltoes -9.25418
262
root 5.51024 17.681 18.5255 -0.541411 0.726578 2.43379
lowerback 9.53188 -1.14312 -4.86182
upperback 0.296311 -1.97647 1.46144
thorax -4.825 -0.850657 4.53712
lowerneck -17.3376 -2.21021 -2.11038
upperneck 15.2418 -2.7233 1.31269
head 7.59292 -1.29533 0.464037
rclavicle -7.15625e-015 -3.97569e-016
rhumerus -36.6615 -26.5058 -72.9441
rradius 22.8465
rwrist 6.78244
rhand -17.7981 23.665
rfingers 7.12502
rthumb 8.46514 -6.14536
lclavicle -7.15625e-015 -3.97569e-016
lhumerus -22.5129 -3.54028 79.8951
lradius 35.168
lwrist 7.37203
lhand -27.793 23.0583
lfingers 7.12502
lthumb -1.18598 53.0348
rfemur -28.5587 5.73633 18.6123
rtibia 15.3631
rfoot -9.66941 -12.5898
rtoes -2.81559
lfemur 16.3636 -1.5834 -27.1962
ltibia 14.9327
lfoot -15.533 -3.73372
ltoes -11.4888
263
root 5.49634 17.6701 18.7384 -0.63867 0.817015 2.23282
lowerback 9.37277 -1.21096 -4.72396
upperback 0.489457 -2.03609 1.56492
thorax -4.52694 -0.895828 4.56463
lowerneck -17.6413 -2.17245 -2.10401
upperneck 15.2308 -2.65367 1.246
head 7.63925 -1.26666 0.446331
rclavicle -6.95746e-015 -7.95139e-016
rhumerus -36.4921 -26.2987 -73.0644
rradius 22.914
rwrist 6.67387
rhand -18.1341 23.4627
rfingers 7.12502
rthumb 8.14094 -6.36049
lclavicle -6.95746e-015 -7.95139e-016
lhumerus -22.2003 -3.3722 79.9799
lradius 35.0437
lwrist 7.56633
lhand -27.189 25.1649
lfingers 7.12502
lthumb -0.602641 55.1438
rfemur -28.6073 5.21807 19.255
rtibia 16.8688
rfoot -8.92635 -11.1036
rtoes -2.68968
lfemur 17.0378 -1.98776 -26.9867
ltibia 15.2139
lfoot -14.9847 -3.87804
ltoes -12.6007
264
root 5.47723 17.671 18.9523 -0.781319 0.943882 2.5446
lowerback 9.26654 -1.25169 -5.18686
upperback 0.650971 -2.13195 1.54594
thorax -4.27148 -0.946379 4.81052
lowerneck -17.8134 -2.14908 -2.02913
upperneck 15.1508 -2.61281 1.12201
head 7.63883 -1.2542 0.396748
rclavicle 3.73715e-014 -7.15625e-015
rhumerus -36.5708 -26.4256 -72.8786
rradius 23.0476
rwrist 7.17961
rhand -18.2121 23.4079
rfingers 7.12502
rthumb 8.0656 -6.4182
lclavicle 3.73715e-014 -7.15625e-015
lhumerus -22.1598 -3.31684 80.1083
lradius 35.0516
lwrist 7.83591
lhand -27.0776 27.19
lfingers 7.12502
lthumb -0.49505 57.1692
rfemur -28.6226 4.83813 19.2854
rtibia 18.5399
rfoot -8.11254 -9.76568
rtoes -1.4417
lfemur 17.3198 -2.24342 -27.2891
ltibia 15.4358
lfoot -13.9447 -4.70197
ltoes -13.1294
265
root 5.45592 17.6712 19.1718 -0.859601 1.05999 2.61956
lowerback 9.0965 -1.25529 -5.31926
upperback 0.725749 -2.14147 1.51626
thorax -4.09316 -0.9568 4.84682
lowerneck -17.7381 -2.16165 -1.79581
upperneck 14.9951 -2.63747 0.840798
head 7.5674 -1.28048 0.26464
rclavicle -1.20762e-014 2.78299e-015
rhumerus -36.7615 -26.9331 -72.554
rradius 22.9223
rwrist 7.74549
rhand -18.4273 22.9552
rfingers 7.12502
rthumb 7.85796 -6.87876
lclavicle -1.20762e-014 2.78299e-015
lhumerus -22.2938 -3.45806 80.2075
lradius 35.228
lwrist 8.1525
lhand -28.0199 26.6746
lfingers 7.12502
lthumb -1.40512 56.6498
rfemur -28.7677 4.83075 19.3967
rtibia 20.0996
rfoot -6.80121 -9.17892
rtoes 0.0672286
lfemur 17.8394 -2.52894 -27.3295
ltibia 15.9959
lfoot -13.4619 -4.77061
ltoes -17.2085
266
root 5.43732 17.6927 19.3762 -0.766237 1.12887 2.46406
lowerback 9.07213 -1.27663 -5.19449
upperback 0.648146 -2.15409 1.59134
thorax -4.16093 -0.960652 4.85765
lowerneck -17.5933 -2.12493 -1.75143
upperneck 14.9237 -2.57191 0.684883
head 7.51535 -1.26259 0.21548
rclavicle 3.57812e-014 -9.93923e-015
rhumerus -36.9411 -27.2734 -72.2037
rradius 22.5507
rwrist 8.01785
rhand -19.3181 23.2198
rfingers 7.12502
rthumb 6.99809 -6.64448
lclavicle 3.57812e-014 -9.93923e-015
lhumerus -22.4663 -3.14074 80.3439
lradius 35.2362
lwrist 7.84012
lhand -28.0029 26.9115
lfingers 7.12502
lthumb -1.38871 56.8868
rfemur -29.2383 5.16251 19.5427
rtibia 21.4517
rfoot -2.34898 -8.78952
rtoes -9.40873
lfemur 17.6749 -2.92325 -27.1234
ltibia 16.9955
lfoot -12.3136 -5.48637
ltoes -17.4686
267
root 5.41958 17.699 19.5726 -0.748464 1.17839 1.84018
lowerback 9.33335 -1.31777 -4.64321
upperback 0.524694 -2.15464 1.83474
thorax -4.44705 -0.957172 4.81525
lowerneck -17.5883 -2.08652 -1.73165
upperneck 14.9944 -2.49372 0.515509
head 7.53435 -1.24078 0.165241
rclavicle 1.92324e-014 1.47101e-014
rhumerus -37.2244 -27.2038 -71.8965
rradius 22.374
rwrist 7.99888
rhand -19.1254 24.3704
rfingers 7.12502
rthumb 7.18407 -5.48765
lclavicle 1.92324e-014 1.47101e-014
lhumerus -22.6559 -2.66854 80.5615
lradius 35.0625
lwrist 7.51131
lhand -27.4831 27.2722
lfingers 7.12502
lthumb -0.886675 57.2501
rfemur -29.5182 5.4802 20.204
rtibia 22.556
rfoot 0.128925 -8.8081
rtoes -5.4563
lfemur 17.4005 -3.40076 -26.4625
ltibia 18.5031
lfoot -11.5676 -5.88886
ltoes -18.6646
268
root 5.40599 17.7125 19.7747 -1.02723 1.21422 1.09642
lowerback 9.69596 -1.38245 -3.91699
upperback 0.61188 -2.16392 2.07336
thorax -4.57461 -0.971965 4.66823
lowerneck -17.7391 -2.02601 -1.69831
upperneck 15.0226 -2.39617 0.404594
head 7.56657 -1.20274 0.132993
rclavicle 1.0635e-014 1.55052e-014
rhumerus -37.2237 -27.1484 -71.8486
rradius 22.3452
rwrist 8.06842
rhand -17.983 24.9072
rfingers 7.12502
rthumb 8.28671 -4.91027
lclavicle 1.0635e-014 1.55052e-014
lhumerus -22.6974 -2.06549 80.7206
lradius 34.826
lwrist 7.29345
lhand -27.4501 26.9258
lfingers 7.12502
lthumb -0.85482 56.9038
rfemur -29.1366 5.57266 21.0919
rtibia 23.4321
rfoot 0.872253 -8.53706
rtoes -1.34491
lfemur 17.1954 -3.83117 -25.703
ltibia 20.5952
lfoot -10.8748 -6.3907
ltoes -20.2423
